<svg xmlns="http://www.w3.org/2000/svg" xmlns:xlink="http://www.w3.org/1999/xlink" width="809.675" height="462.577" xmlns:v="https://vecta.io/nano"><style><![CDATA[.B{fill:#2f2e41}.C{fill:#9e616a}.D{fill:#cacaca}.E{fill:#e4e4e4}.F{fill:#3f3d56}.G{fill:#395886}.H{fill:#ffb8b8}]]></style><path d="M133.088 210.327v-130a7 7 0 1 1 14 0v130a7 7 0 1 1-14 0zm-16.75 0v-130a7 7 0 1 1 14 0v130a7 7 0 1 1-14 0zm-16.75 0v-130a7 7 0 1 1 14 0v130a7 7 0 1 1-14 0z" fill="#f0f0f0"/><path d="M731.992 417.964a24.44 24.44 0 0 1-8.271-1.436l-.409-.147.188-.905c-4.752-9.601-3.091-22.753 4.253-33.567 6.677-9.831 16.829-16.979 25.786-23.284 2.325-1.636 5.412-1.696 7.798-.149a6.97 6.97 0 0 1 3.05 7.179l-3.203 16.434c-2.312 11.855-5.062 23.076-13.217 30.073a24.91 24.91 0 0 1-15.976 5.804zm20.977 28.397a18.62 18.62 0 0 1-15.563-8.565l-.232-.361.554-.488c1.433-7.818 8.173-14.784 17.223-17.78 8.226-2.723 17.306-2.277 25.312-1.886h0a5.35 5.35 0 0 1 3.323 9.314l-9.008 8.131c-6.546 5.907-13.074 11.241-20.949 11.623q-.33.013-.658.013z" fill="#e6e6e6"/><g fill="#f2f2f2"><path d="M725.013 455.053c-1.33-9.905-2.698-19.938-1.765-29.949.829-8.891 3.482-17.576 8.884-24.696 2.854-3.76 6.343-6.992 10.311-9.551 1.031-.665 1.98 1.005.953 1.668a38.87 38.87 0 0 0-15.112 18.64c-3.29 8.555-3.818 17.88-3.251 26.968.343 5.496 1.07 10.955 1.802 16.408.122.507-.165 1.024-.66 1.188a.95.95 0 0 1-1.162-.674z"/><path d="M721.254 460.747c6.403-11.581 13.829-24.453 27.099-28.567 3.685-1.139 7.557-1.548 11.398-1.203 1.21.107.908 2.014-.3 1.907-6.452-.542-12.89 1.199-18.19 4.92-5.129 3.569-9.122 8.53-12.502 13.792-2.07 3.223-3.925 6.582-5.78 9.938-.593 1.072-2.325.298-1.726-.787z"/></g><path d="M718.373 460.577l6.465.148-38.98-208.238-6.465 1.218 10.179 54.02h-32.793l10.179-54.02-6.464-1.218-38.655 208.238 6.139-.148 20.322-107.852h49.751zm-68.566-115.852l5.464-29h35.808l5.464 29z" class="D"/><g fill="#f0f0f0"><use xlink:href="#B"/><use xlink:href="#B" x="-16.75"/><use xlink:href="#B" x="-33.5"/></g><path d="M543.502 163.354a1.5 1.5 0 0 0-.656-1.028l-52.773-34.839c.795-.332 1.46-.915 1.894-1.659h0c1.097-1.914.443-4.355-1.464-5.464l-4.33-2.5a4.01 4.01 0 0 0-5.464 1.464 3.94 3.94 0 0 0-.507 1.643l-38.094-25.148a23.06 23.06 0 0 0-14.27-13.156V71.577h-14v11.088a23.01 23.01 0 0 0-16 21.912v3h14a9 9 0 1 0 18 0h14v-3c-.001-1.438-.137-2.873-.405-4.286l96.369 63.62-40.031 48.67-.933-.004-9.237.206c.178-.494.256-1.019.229-1.544-.121-2.203-1.999-3.895-4.203-3.786l-4.993.26c-2.203.121-3.895 1.999-3.787 4.203a3.93 3.93 0 0 0 .542 1.772c-8.829.938-14.551 2.232-14.551 2.89 0 1.078 15.363.052 34.592.002.18.509.62.882 1.151.975s1.072-.107 1.415-.525l.371-.45c19.172.053 34.471 1.073 34.471-.003 0-1.015-13.602-3.538-31.226-3.943l39.566-48.104a1.5 1.5 0 0 0 .324-1.176z" fill="#ccc"/><path d="M544.945 461.078H421.729c-5.185-.006-9.386-4.208-9.392-9.393V249.469c-.005-4.632-3.76-8.386-8.392-8.392H115.73c-4.632.005-8.387 3.759-8.392 8.392v202.216c-.006 5.185-4.207 9.386-9.392 9.393H93.73c-5.185-.006-9.386-4.208-9.392-9.393V238.578a22.53 22.53 0 0 1 22.5-22.5h425a22.53 22.53 0 0 1 22.5 22.5v213.107c-.006 5.185-4.208 9.387-9.393 9.393z" class="E"/><path d="M412.838 268.577h141v6h-141zm0 81h141v6h-141z" fill="#fff"/><path d="M296.121 215.09l-4.052-1.706-2.78-20.315h-37.02l-3.013 20.232-3.626 1.813a.86.86 0 0 0 .385 1.631h49.772a.86.86 0 0 0 .334-1.654z" fill="#e6e6e6"/><path d="M361.909 195.772H180.055c-1.987-.004-3.595-1.616-3.595-3.603v-25.644h189.043v25.644c0 1.987-1.608 3.598-3.595 3.603z" fill="#ccc"/><path d="M365.694 178.645H176.294V68.921a4.35 4.35 0 0 1 4.343-4.343H361.35a4.35 4.35 0 0 1 4.343 4.343z" class="F"/><path d="M354.382 170.681H187.606c-1.848-.002-3.346-1.5-3.348-3.348V75.89c.002-1.848 1.5-3.346 3.348-3.348h166.775c1.848.002 3.346 1.5 3.348 3.348v91.443c-.002 1.848-1.5 3.346-3.348 3.348z" fill="#fff"/><path d="M541.339 83.039c3.23-.465 6.499.524 8.929 2.701s3.771 5.319 3.662 8.58l36.565 14.074-16.566 11.836-32.183-15.18c-5.589-.559-9.877-5.209-9.981-10.825s4.009-10.422 9.573-11.187z" class="C"/><path d="M680.177 76.13l6.186 11.247c-1.495 7.133-5.358 13.551-10.963 18.211-9.471 7.988-58.992 37.737-58.992 37.737l-62.517-31.385 10.937-14.533 49.082 16.449h0c18.207-17.193 40.179-29.895 64.164-37.094z" class="E"/><ellipse cx="668.675" cy="246.336" rx="48.791" ry="15.898" class="D"/><path d="M559.217 447.105l-12.956-3.581 7.648-51.678 19.122 5.287-13.814 49.972z" class="C"/><path d="M559.05 460.577l-41.775-11.548.146-.528c2.483-8.98 11.774-14.247 20.755-11.766h.001l25.515 7.053z" class="B"/><path d="M521.653 447.273l-12.297-5.43 15.092-50.012 18.148 8.013-20.943 47.429z" class="C"/><g class="B"><path d="M519.526 460.577l-39.649-17.508.221-.501c3.764-8.523 13.723-12.381 22.246-8.619h.001l24.216 10.693zm187.12-253.11s6.517 20.193-33.471 45.73l-51.501 51.319-53.512 128.006-31.77-14.243 6.231-16.632 4.181-11.16 2.139-5.71 2.293-6.121 34.012-90.787 28.57-50.023.829-27.143 7.027-19.134 50.983-18.091z"/><path d="M680.646 208.467s6.517 20.193-33.471 45.73l-51.501 51.319-53.512 128.006-31.77-14.243 6.231-16.632 4.181-11.16 2.139-5.71 2.293-6.121 34.012-90.787 9.566-16.749a305.08 305.08 0 0 1 45.646-60.815l9.378-9.694 1-15 21.82-12.133z"/></g><path d="M649.838 109.611l16-34 27.922-3.809s21.803 27.777 16.078 66.809c-2.147 14.637-3.896 29.209-4 42-.028 3.403 2.95 4.923 3 8 .049 3.023-5.643 7.946-4 10a17.53 17.53 0 0 1 4 10c-1.981 4.716-61.956-20.834-87.164-17.042z" class="E"/><circle cx="862.949" cy="260.492" r="25.255" transform="matrix(.510979 -.859593 .859593 .510979 2.9207 650.45999)" class="C"/><path d="M683.933 32.713l-.192 2.54a13.19 13.19 0 0 0 2.199 7.68c1.413 2.389-.273 16.821-.273 16.821 41.368-28.836 8.681-57.807-4.105-55.232.267-3.667-10.161-2.214-10.161-2.214-3.973-6.188-12.682 2.026-12.682 2.026l1.68-2.827c-6.761 1.72-13.444 22.615-13.444 22.615 2.293 9.015 37.245 4.923 36.978 8.591z" class="B"/><use xlink:href="#C" fill="#ccc"/><path d="M520.133 120.492a1.8 1.8 0 0 1-2.245.464L469.243 94.89c-.479-.25-.813-.709-.903-1.242-.103-.562.064-1.14.45-1.561 15.198-17.111 26.154-37.559 31.983-59.69.137-.554.525-1.013 1.049-1.239.494-.221 1.063-.197 1.537.064l48.645 26.065c.76.411 1.12 1.304.858 2.128a227.7 227.7 0 0 1-32.727 61.078z" fill="#fff"/><g class="G"><use xlink:href="#D"/><use xlink:href="#D" x="-6" y="11"/><use xlink:href="#D" x="-13" y="23"/><use xlink:href="#D" x="-20" y="33"/><path d="M636.069 204.664l12.596 28.325a4.47 4.47 0 0 1-.319 4.243 4.48 4.48 0 0 1-4.54 2.019 4.13 4.13 0 0 1-.868-.232 4.51 4.51 0 0 1-2.496-2.374l-12.596-28.325a4.5 4.5 0 1 1 8.224-3.657z"/></g><path d="M647.65 230.705l2.524 5.717 1.29 8.105a2.45 2.45 0 0 1-4.329 1.925l-5.222-6.497-2.487-5.592zm-22.603-33.922l1.805 11.34a2.45 2.45 0 0 0 3.419 1.856l1.79-.796 3.454 7.767a1 1 0 0 0 1.827-.813l-3.454-7.767 1.79-.796c1.235-.55 1.793-1.995 1.248-3.232a2.47 2.47 0 0 0-.337-.549l-7.212-8.936c-.698-.864-1.89-1.152-2.905-.7s-1.6 1.529-1.426 2.626z" class="F"/><path d="M630.272 217.252c.575-3.212 2.542-6.004 5.374-7.626s6.236-1.906 9.297-.776l24.866-30.278 6.021 19.449-24.536 25.771c-2.289 5.129-8.053 7.736-13.416 6.067s-8.631-7.085-7.606-12.607z" class="C"/><path d="M661.577 215.284l-10.952-15.819 31.099-41.465-16.021-34.33 1.167-40.835 13.239-2.446.164.082c6.436 3.705 11.411 9.5 14.099 16.423 3.303 8.256 10.675 39.25 14.776 56.99a20.68 20.68 0 0 1-5.561 19.389z" class="E"/><path d="M353.214 138.846a14.72 14.72 0 0 0-.091 2.316l-56.073 40.794-15.405-6.817-13.327 21.903 26.098 14.719c4.331 2.443 9.754 1.733 13.311-1.741l56.435-55.123a14.68 14.68 0 0 0 15.739-22.496 14.68 14.68 0 0 0-26.688 6.446z" fill="#ffb6b6"/><path d="M295.237 183.447l-16.352 27.248a6.29 6.29 0 0 1-9.388 1.625l-24.483-20.107c-8.229-5.004-10.857-15.722-5.877-23.966s15.691-10.903 23.948-5.948l29.17 12.099a6.29 6.29 0 0 1 2.983 9.049z" class="G"/><g class="D"><path d="M257.227 420.283h-32.052v-53.116h32.052z"/><path d="M251.506 401.336l4.114-6.063 76.926 52.199-4.114 6.063zm-101.652 46.137l76.926-52.2 4.114 6.063-76.926 52.2z"/><circle cx="330.489" cy="450.504" r="10.074"/><circle cx="240.742" cy="450.504" r="10.074"/><circle cx="151.911" cy="450.504" r="10.074"/><path d="M237.079 398.304h7.326v52.2h-7.326zm10.99-7.326h-13.737v-70.515h13.737z"/></g><path d="M201.822 331.452v-16.484c.007-6.319 5.128-11.44 11.447-11.447h61.358c6.319.007 11.44 5.128 11.447 11.447v16.484c-.007 6.319-5.128 11.44-11.447 11.447h-61.358c-6.319-.007-11.44-5.128-11.447-11.447z" class="F"/><path d="M312.641 444.129l16.968-.001 8.074-44.011-25.044.001.002 44.011z" class="H"/><g class="B"><use xlink:href="#E"/><path d="M338.021 416.837l33.829-75.86c5.857-13.259.544-28.793-12.206-35.688l-73.377-39.347-33.484-2.848-30.886-2.807-.223.377c-.285.481-6.926 11.952-2.437 24.529 3.405 9.54 12.262 16.992 26.324 22.149 32.824 12.035 70.741 22.322 85.52 26.185 1.321.338 2.435 1.224 3.061 2.436a4.84 4.84 0 0 1 .272 3.874l-31.429 70.61a6.23 6.23 0 0 0 5.273 8.345l23.484 1.71q.299.028.595.028c2.457-.001 4.684-1.447 5.683-3.691z"/></g><path d="M301.568 444.129l16.968-.001 8.074-44.011-25.044.001.002 44.011z" class="H"/><g class="B"><use xlink:href="#E" x="-11.073"/><path d="M325.564 420.989l33.829-75.86c5.857-13.259.544-28.793-12.206-35.688l-73.377-39.347-33.483-2.848-24.192-2.098.003-.332c-.285.481-6.926 11.952-2.437 24.529 3.405 9.54 5.341 16.992 19.404 22.149 32.824 12.035 70.741 22.322 85.52 26.185 1.321.338 2.435 1.224 3.061 2.436a4.84 4.84 0 0 1 .272 3.874l-31.429 70.61a6.23 6.23 0 0 0 5.273 8.345l23.484 1.71q.299.028.595.028c2.457-.001 4.684-1.447 5.683-3.691z"/></g><circle cx="466.433" cy="305.085" r="33.995" transform="matrix(.231362 -.972868 .972868 .231362 -133.45157 469.56581)" class="H"/><use xlink:href="#C" x="-135" y="94" fill="#ccc"/><path d="M385.133 214.492a1.8 1.8 0 0 1-2.245.464l-48.646-26.066c-.479-.25-.813-.709-.903-1.242-.103-.562.064-1.14.45-1.561 15.198-17.111 26.154-37.559 31.983-59.69.137-.554.525-1.013 1.049-1.239.494-.221 1.063-.197 1.537.064l48.644 26.065c.76.411 1.12 1.304.858 2.128a227.7 227.7 0 0 1-32.727 61.078z" fill="#fff"/><g fill="#ccc"><use xlink:href="#D" x="-135" y="94"/><use xlink:href="#D" x="-141" y="105"/><path d="M357.401 171.943l30.514 18.115c3.036 1.802 6.283-1.924 3.252-3.723l-30.514-18.115c-3.036-1.802-6.283 1.924-3.252 3.723z"/><use xlink:href="#D" x="-155" y="127"/></g><path d="M290.872 268.694l-67.274-.402-.018-.479c-1.283-33.754 2.843-64.33 12.612-93.475l.434-3.401c1.669-13.039 2.994-23.392 15.393-27.247-1.033-1.374-1.642-3.019-1.752-4.734-.158-2.303.615-4.572 2.145-6.3 1.464-1.669 3.537-2.68 5.753-2.807l23.945-.815c1.258-.009 2.483.407 3.477 1.179a9.56 9.56 0 0 1 2.784 12.077c-.282.562-.39.817-.431.929.851 4.46 3.377 9.758 6.05 15.364 3.827 8.027 8.165 17.125 9.28 26.858.602 5.255.352 10.573-.741 15.749-.499 2.789-.614 5.633-.342 8.453.219 4.182.425 8.13-1.938 11.948a69.15 69.15 0 0 1-2.101 3.361l-3.325 7.948z" class="G"/><path d="M189.916 315.93V178.469c.011-9.327 7.569-16.885 16.895-16.895h4.673c9.327.011 16.885 7.569 16.895 16.895V315.93c-.011 9.327-7.569 16.885-16.895 16.895h-4.673c-9.327-.011-16.885-7.569-16.895-16.895z" class="F"/><path d="M370.32 192.189a14.72 14.72 0 0 0-1.299 1.919l-69.158 5.05-9.485-13.922-22.881 11.569 14.396 26.277c2.389 4.361 7.37 6.621 12.224 5.548l77.03-17.029a14.68 14.68 0 0 0 25.243-10.799 14.68 14.68 0 0 0-26.069-8.613z" fill="#ffb6b6"/><path d="M297.536 199.467l-28.271 14.511a6.29 6.29 0 0 1-8.831-3.575l-10.181-30.001c-4.346-8.574-.946-19.049 7.608-23.436-12.532 6.433 13.569-11.839 23.53 7.568l18.388 25.673a6.29 6.29 0 0 1-2.243 9.26z" class="G"/><path d="M255.913 119.438c-2.046 0-4.304-.986-6.849-2.984-15.395-12.089-20.824-32.969-13.265-51.025 1.851-4.421 5.312-10.43 11.292-13.951 4.299-2.53 9.349-3.444 13.745-4.103a181.72 181.72 0 0 1 11.453-1.348c4.533-.388 9.77-.649 14.546 1.165 3.499 1.33 6.478 3.679 9.358 5.95l3.082 2.368c2.519 1.965 5.425 3.377 8.528 4.142a4.67 4.67 0 0 1 3.126 2.29c.675 1.2.796 2.633.334 3.929-.449 1.26-.855 2.396-.034 3.626a3.24 3.24 0 0 0 2.706 1.379c.568-.009 1.101.269 1.418.74a1.71 1.71 0 0 1 .186 1.59l-.132.339a2.18 2.18 0 0 1 1.701 1.106c.529.905.358 2.056-.411 2.768-3.034 2.888-6.816 4.867-10.918 5.714a21.82 21.82 0 0 1-8.499-.02l-.451-.088.055-.5c-11.344-4.046-21.584 2.82-27.422 10.67l-.843-.532a2.42 2.42 0 0 0 .107-1.896 2.94 2.94 0 0 0-1.455-1.721 3.81 3.81 0 0 0-4.144.827 5.65 5.65 0 0 0-1.55 4.286 15.34 15.34 0 0 0 1.251 4.806c.274.729.558 1.482.789 2.242a18.31 18.31 0 0 1-.968 13.035c-.884 1.86-2.481 4.232-5.076 4.968a6.07 6.07 0 0 1-1.661.229z" class="B"/><path d="M808.485 462.577H1.191a1.19 1.19 0 0 1-1.187-1.191 1.19 1.19 0 0 1 1.187-1.191h807.294a1.19 1.19 0 1 1 0 2.381z" class="D"/><defs ><path id="B" d="M436.088 213.644v-68.385c0-2.03 3.14-3.682 7-3.682s7 1.652 7 3.682v68.385c0 2.03-3.14 3.682-7 3.682s-7-1.652-7-3.682z"/><path id="C" d="M523.453 122.986a231.85 231.85 0 0 0 33.323-62.191c.942-2.756-.248-5.788-2.812-7.169l-48.645-26.065a5.88 5.88 0 0 0-5.157-.209 5.98 5.98 0 0 0-3.407 3.992c-5.662 21.498-16.305 41.361-31.067 57.982-1.232 1.371-1.762 3.233-1.437 5.047a5.88 5.88 0 0 0 3.03 4.177l48.645 26.065c2.57 1.37 5.753.681 7.526-1.629z"/><path id="D" d="M503.115 55.986l33.552 19.666c3.338 1.957 6.361-3.227 3.028-5.181l-33.552-19.666c-3.338-1.957-6.361 3.227-3.028 5.181z"/><path id="E" d="M308.313 460.577l54.715-.002v-.692c0-5.648-2.244-11.065-6.237-15.059s-9.41-6.238-15.059-6.238h-.002l-33.418.001z"/></defs></svg>