<svg xmlns="http://www.w3.org/2000/svg" width="668" height="531" viewBox="0 0 500 398" xmlns:v="https://vecta.io/nano"><style><![CDATA[.B{fill:rgb(24.705882%,23.921569%,33.72549%)}.C{fill:rgb(22.352941%,34.509804%,52.54902%)}.D{fill:rgb(100%,71.372549%,71.372549%)}.E{fill:rgb(18.431373%,18.039216%,25.490196%)}.F{fill:rgb(100%,100%,100%)}]]></style><path d="M132.691 91.551l-59.473-7.941 12.035-61.031 63.887 12.633zm0 0" class="E"/><g class="B"><path d="M75.523 355.586V103.805a8.28 8.28 0 0 1 8.262-8.273H491.66c4.555 0 8.266 3.711 8.266 8.273v251.781c0 4.563-3.711 8.277-8.266 8.277H83.785c-4.555 0-8.262-3.715-8.262-8.277zm422.902-251.781a6.77 6.77 0 0 0-6.766-6.773H83.785a6.77 6.77 0 0 0-6.766 6.773v251.781c0 3.742 3.031 6.777 6.766 6.777h289.914c68.887 0 124.727-55.918 124.727-124.898zm0 0"/><path d="M458.629 133.23l-6.16-2.922c2.527 3.531 4.703 9.043 5.867 13.434 1.977-4.09 5.156-9.09 8.305-12.078l-6.512 1.676c4.012-19.687 19.102-33.82 36.383-33.82l.242-.711c-18.047 0-34.031 13.938-38.125 34.422zm0 0"/></g><path d="M486.98 163.227h-38.922c-1.652 0-2.992-1.344-2.992-2.996a3 3 0 0 1 2.992-3h38.922c1.652 0 2.996 1.348 2.996 3a3 3 0 0 1-2.996 2.996zm0 0" class="C"/><g class="B"><path d="M371.418 185.746v79.449a12.75 12.75 0 0 1-12.723 12.742h-79.344a12.75 12.75 0 0 1-12.723-12.742v-79.449a12.75 12.75 0 0 1 12.723-12.742h79.344a12.75 12.75 0 0 1 12.723 12.742zm-17.645 90.695c8.918 0 16.148-7.242 16.148-16.172V225.14c0-27.965-22.641-50.637-50.566-50.637h-40.004a11.24 11.24 0 0 0-11.227 11.242v68.367c0 12.328 9.984 22.328 22.297 22.328zm-24.187-70.988h-25.613c-.648 0-1.172-.527-1.172-1.172a1.17 1.17 0 0 1 1.172-1.172h25.613c.645 0 1.172.523 1.172 1.172s-.527 1.172-1.172 1.172zm0 25.008h-25.613c-.648 0-1.172-.527-1.172-1.172s.523-1.176 1.172-1.176h25.613c.645 0 1.172.527 1.172 1.176s-.527 1.172-1.172 1.172zm-12.727 34.477h-25.613c-.645 0-1.172-.523-1.172-1.172s.527-1.172 1.172-1.172h25.613c.648 0 1.172.527 1.172 1.172a1.17 1.17 0 0 1-1.172 1.172zm0 0"/><path d="M343.332 217.965h-53.105c-.645 0-1.172-.527-1.172-1.172s.527-1.172 1.172-1.172h53.105a1.17 1.17 0 0 1 1.168 1.172c0 .645-.523 1.172-1.168 1.172zm0 0"/></g><path d="M137.441 226.824H49.66c7.355-16.441 11.879-32.102 4.809-44.555l82.973-4.816c-4.148 16.813-4.656 33.313 0 49.371zm0 0" class="D"/><path d="M167.672 363.863h-64.531a1.22 1.22 0 0 1-1.098-.687l-.395-.812-8.574-17.629c-.551-1.133-2.25-.785-2.312.477l-.824 17.152-.02.34a1.22 1.22 0 0 1-1.215 1.16H25.164a1.22 1.22 0 0 1-1.215-1.145l-.023-.355c-4.059-62.699 10.531-105.195 19.086-124.211l.008-.008c3.359-7.48 5.801-11.328 5.801-11.328l.848-.004h.008l17.086-.301h.008l15.137-.254 11.434-.187 4.59-.086h.008l2.875-.043 14.289-.246 12.762-.219 9.16-.148h.254l1.363 5.883v.008l.055.262v.008l.23.965.008.031.465 2.031v.016l.027.113v.008l.113.484.008.023 1.078 4.672 1.742 7.59 2.301 9.934 2.895 12.605 1.469 6.348 2.012 8.75 17.816 77.305a1.22 1.22 0 0 1-1.187 1.5zm0 0" class="E"/><path d="M124.766 80.414l-34.934-1.223-13.809 18.543-7.266 1.578c-10.891 2.371-18.363 12.43-17.492 23.555l3.301 77.09 1.496 8.992 82.336 13.492 18.512-116.664-24.359-8.762zm0 0" class="C"/><path d="M143.375 46.09c0 17.34-14.039 31.398-31.355 31.398S80.66 63.43 80.66 46.09s14.039-31.402 31.359-31.402 31.355 14.059 31.355 31.402zm0 0" class="D"/><g class="B"><path d="M461.215 360.945l-27.184-10.113c-4.078-1.52-6.16-6.074-4.645-10.156l26.707-71.965c1.512-4.082 6.063-6.168 10.141-4.652l27.184 10.117c4.078 1.516 6.164 6.074 4.648 10.156-10.219 29.086-21.367 61.77-26.707 71.961-1.516 4.086-6.066 6.172-10.145 4.652zm0 0"/><path d="M491.367 303.539c-.172-.066-.363.023-.426.195l-3.723 10.023c-.062.176.023.367.199.43s.363-.023.426-.195l3.723-10.023c.063-.172-.023-.367-.199-.43zm0 0"/></g><path d="M497.363 284.07l-26.707 71.961a7.14 7.14 0 0 1-8.738 4.359l-.16-.051-.281-.098-.945-.434-2.633-1.219-1.062-.496-2.434-1.145-1.078-.512-6.195-2.969-1.129-.551c-.102-.051-16.223-11.145-15.91-11.984l26.707-71.961c1.371-3.699 5.48-5.586 9.176-4.211l3.996 1.488c.637.238.965.926.785 1.586-.012.043-.023.086-.031.133-.121.684.301 1.348.949 1.59l14.043 5.227c.648.242 1.402.012 1.758-.586.023-.039.043-.078.063-.121.293-.617.988-.922 1.629-.684l3.992 1.484c3.695 1.375 5.578 5.488 4.207 9.191zm0 0" class="C"/><path d="M451.648 280.199c-.172-.062-.363.027-.426.199l-.934 2.504c-.062.176.027.367.199.43s.363-.023.43-.195l.93-2.508c.063-.172-.023-.363-.199-.43zm-2.789 7.52c-.172-.062-.363.023-.43.195l-1.801 4.855c-.062.176.023.367.195.43s.367-.023.43-.195l1.801-4.855c.066-.172-.023-.367-.195-.43zm-2.558 6.89a.33.33 0 0 0-.426.199l-1.805 4.855c-.062.172.023.363.199.43s.363-.027.426-.199l1.805-4.855c.063-.172-.023-.363-.199-.43zm0 0" class="B"/><path d="M463.473 265.082l5.977 2.223c.035.012.051.051.039.086l-.246.66c-.012.035-.047.051-.082.039l-5.98-2.227c-.031-.012-.051-.051-.035-.082l.246-.664c.012-.031.047-.051.082-.035zm26.879 9.934c0 .367-.297.668-.664.668a.67.67 0 0 1-.668-.668c0-.371.297-.668.668-.668a.66.66 0 0 1 .664.668zm1.722.64a.67.67 0 0 1-.668.668.67.67 0 1 1 0-1.34.67.67 0 0 1 .668.672zm1.719.637a.67.67 0 0 1-.668.672c-.367 0-.664-.301-.664-.672s.297-.668.664-.668a.67.67 0 0 1 .668.668zm0 0" fill="rgb(90.196078%,90.196078%,90.196078%)"/><path d="M394.563 133.711H371.09c-3.02 0-5.48-2.461-5.48-5.484v-26.508c0-3.023 2.461-5.484 5.48-5.484h23.473a5.49 5.49 0 0 1 5.48 5.484v26.508a5.49 5.49 0 0 1-5.48 5.484zm0 0" class="F"/><path d="M394.563 133.711H371.09c-3.02 0-5.48-2.461-5.48-5.484-1.18-9.762-1.504-18.852 0-26.508 0-3.023 2.461-5.484 5.48-5.484h23.473a5.49 5.49 0 0 1 5.48 5.484v26.508a5.49 5.49 0 0 1-5.48 5.484zM371.09 96.984a4.74 4.74 0 0 0-4.73 4.734v26.508a4.74 4.74 0 0 0 4.73 4.734h23.473a4.74 4.74 0 0 0 4.73-4.734v-26.508a4.74 4.74 0 0 0-4.73-4.734zm0 0" class="B"/><path d="M392.191 112.352h-19.34c-.82 0-1.488-.672-1.488-1.492a1.49 1.49 0 0 1 1.488-1.488h19.34a1.49 1.49 0 0 1 1.488 1.488c0 .82-.668 1.492-1.488 1.492zm0 8.242h-19.34a1.49 1.49 0 1 1 0-2.98h19.34a1.49 1.49 0 1 1 0 2.98zm0-16.489h-19.34a1.49 1.49 0 1 1 0-2.98h19.34a1.49 1.49 0 1 1 0 2.98zm0 0" class="C"/><path d="M101.355 87.266c1.719 3.242 4.027 5.828 6.473 7.5l14.418 31.934 14.977-7.312-16.238-31.609c-.012-2.965-.855-6.328-2.574-9.57-3.926-7.41-10.926-11.391-15.633-8.891s-5.348 10.539-1.422 17.949zm0 0" class="D"/><path d="M133.824 107.391s21.961-11.523 28.777.578c5.813 10.324 10.016 61.988 11.121 76.93a11.83 11.83 0 0 1-1.941 7.422c-4.309 6.484-13.594 7.105-18.719 1.246l-44.504-87.746 21.109-10.047 5.164 12.523zm0 0" class="C"/><path d="M180.777 231.008a4.18 4.18 0 0 0 .766-2.422v-76.895a4.2 4.2 0 0 0-4.195-4.203H61.27a4.2 4.2 0 0 0-4.195 4.203v76.895a4.21 4.21 0 0 0 .766 2.422H43.344v4.031c50.406 2.82 101.047 2.82 151.934 0v-4.031zm0 0" class="B"/><path d="M305.492 398.297h-23.477a5.49 5.49 0 0 1-5.477-5.488v-26.504a5.49 5.49 0 0 1 5.477-5.484h23.477a5.49 5.49 0 0 1 5.477 5.484v26.504a5.49 5.49 0 0 1-5.477 5.488zm0 0" class="F"/><path d="M305.492 398.297h-23.477a5.49 5.49 0 0 1-5.477-5.488c-1.18-9.758-1.504-18.848 0-26.504a5.49 5.49 0 0 1 5.477-5.484h23.477a5.49 5.49 0 0 1 5.477 5.484v26.504a5.49 5.49 0 0 1-5.477 5.488zm-23.477-36.73a4.74 4.74 0 0 0-4.727 4.738v26.504a4.74 4.74 0 0 0 4.727 4.738h23.477a4.74 4.74 0 0 0 4.73-4.738v-26.504a4.74 4.74 0 0 0-4.73-4.738zm0 0" class="B"/><path d="M303.121 376.934h-19.344a1.49 1.49 0 1 1 0-2.98h19.344a1.49 1.49 0 1 1 0 2.98zm0 8.246h-19.344a1.49 1.49 0 1 1 0-2.98h19.344a1.49 1.49 0 1 1 0 2.98zm0-16.492h-19.344a1.49 1.49 0 0 1-1.488-1.488c0-.82.668-1.492 1.488-1.492h19.344c.82 0 1.488.672 1.488 1.492a1.49 1.49 0 0 1-1.488 1.488zm0 0" class="C"/><path d="M100.703 220.832c-3.668.02-7.023.867-9.641 2.262l-34.941-2.023-.477 16.676 35.496.258c2.629 1.367 5.996 2.176 9.664 2.156 8.375-.043 15.145-4.406 15.117-9.742s-6.844-9.629-15.219-9.586zm0 0" class="D"/><path d="M67.133 99.371s-29.703-3.312-37.27 15.137C24.086 128.605 9.066 183.539.641 214.992c-3.078 11.5 5.297 22.887 17.176 23.355l52.465 2.082 3.035-23.242-37.465-5.988 20.957-62.961zm0 0" class="C"/><path d="M143.383 21.848c1.508-7.648-7.746-10.617-14.676-14.164l-5.883-4.984c-6.172-3.156-13.383-3.562-19.867-1.117L82.723 8.324c-9.184 3.465-12.387 11.711-17.68 19.988l-8.871 11.859c-5.211 8.148-3.652 20.867-2.43 30.465l.512 4.02-4.875 11.672 37.461 6.699 7.547-18.016-4.711-8.559a7.38 7.38 0 0 1 1.609-9.113c9.387-8.203 11.184-22.281 11.184-22.281l7.934 7.008c5.77 2.168 11.094 3.285 15.98 3.367 5.375.094 10.223-1.062 14.555-3.441l.762 11.609c-2.238 13.727-5.578 16.746-20.633 27.246l18.117 18.09.848-7.367c2.023-17.523 10.746-29.719 13.109-43.816 1.633-9.75-2.137-19.621-9.758-25.906zm0 0" class="E"/></svg>